<svg width="16" height="16" viewBox="0 0 16 16" fill="none" xmlns="http://www.w3.org/2000/svg">
<path fill-rule="evenodd" clip-rule="evenodd" d="M10.6786 7.11914L8.88195 5.32247L10.1806 4.02314L11.9766 5.81914L10.6786 7.11914ZM6.05261 11.7498L4.06795 11.9305L4.24395 9.9598L7.98861 6.21514L9.78595 8.01247L6.05261 11.7498ZM12.9353 4.8918L12.9346 4.89114L11.1093 3.0658C10.6153 2.57314 9.76661 2.5498 9.29861 3.0198L3.30128 9.01714C3.08395 9.2338 2.94928 9.5218 2.92128 9.82647L2.66861 12.6065C2.65128 12.8031 2.72128 12.9978 2.86128 13.1378C2.98728 13.2638 3.15728 13.3331 3.33261 13.3331C3.35328 13.3331 3.37328 13.3325 3.39328 13.3305L6.17328 13.0778C6.47861 13.0498 6.76595 12.9158 6.98261 12.6991L12.9806 6.70114C13.4659 6.21447 13.4453 5.40247 12.9353 4.8918Z" fill="#9D9D9D"/>
<mask id="mask0" mask-type="alpha" maskUnits="userSpaceOnUse" x="2" y="2" width="12" height="12">
<path fill-rule="evenodd" clip-rule="evenodd" d="M10.6786 7.11914L8.88195 5.32247L10.1806 4.02314L11.9766 5.81914L10.6786 7.11914ZM6.05261 11.7498L4.06795 11.9305L4.24395 9.9598L7.98861 6.21514L9.78595 8.01247L6.05261 11.7498ZM12.9353 4.8918L12.9346 4.89114L11.1093 3.0658C10.6153 2.57314 9.76661 2.5498 9.29861 3.0198L3.30128 9.01714C3.08395 9.2338 2.94928 9.5218 2.92128 9.82647L2.66861 12.6065C2.65128 12.8031 2.72128 12.9978 2.86128 13.1378C2.98728 13.2638 3.15728 13.3331 3.33261 13.3331C3.35328 13.3331 3.37328 13.3325 3.39328 13.3305L6.17328 13.0778C6.47861 13.0498 6.76595 12.9158 6.98261 12.6991L12.9806 6.70114C13.4659 6.21447 13.4453 5.40247 12.9353 4.8918Z" fill="white"/>
</mask>
<g mask="url(#mask0)">
<rect width="16" height="16" fill="#9D9D9D"/>
</g>
</svg>
