<svg width="24" height="16" viewBox="0 0 24 16" fill="none" xmlns="http://www.w3.org/2000/svg">
<path d="M23.3822 0.223373H0.617847C0.276204 0.223373 0 0.500002 0 0.84122V15.1592C0 15.5004 0.276204 15.7771 0.617847 15.7771H23.3822C23.7238 15.7771 24 15.5004 24 15.1592V0.84122C24 0.500002 23.7238 0.223373 23.3822 0.223373ZM1.85822 4.92352H4.41969C4.76516 4.93669 5.04348 5.04674 5.13952 5.41601L5.6966 8.09519C5.14929 6.69377 3.83031 5.52776 1.83697 5.04504L1.85822 4.92352ZM4.95765 11.034L3.47805 5.97904C4.54164 6.65978 5.44759 7.73995 5.76671 8.49165L5.93924 9.11587L7.55737 4.98173H9.30807L6.70623 11.0327L4.95765 11.034ZM10.5948 11.0382H8.94263L9.97564 4.97536H11.6286L10.5948 11.0382ZM13.4698 11.1292C12.7292 11.1215 12.0157 10.9749 11.629 10.8054L11.8615 9.44859L12.0744 9.54505C12.617 9.77153 12.9684 9.86332 13.63 9.86332C14.1047 9.86332 14.6133 9.67762 14.618 9.27139C14.621 9.00581 14.4051 8.81629 13.7618 8.51884C13.1346 8.22904 12.3042 7.74292 12.3144 6.87224C12.3234 5.69391 13.4741 4.87167 15.1071 4.87167C15.747 4.87167 16.2599 5.0034 16.5871 5.12621L16.364 6.44051L16.2149 6.3704C15.9106 6.24802 15.5193 6.12989 14.9783 6.13839C14.3316 6.13839 14.0316 6.40779 14.0316 6.65978C14.0282 6.94363 14.3817 7.1306 14.9596 7.4119C15.9127 7.84448 16.3534 8.36927 16.3475 9.05893C16.3347 10.3167 15.2074 11.1292 13.4698 11.1292ZM20.6299 11.0408C20.6299 11.0408 20.479 10.3439 20.4289 10.1323C20.1884 10.1323 18.5023 10.1297 18.3127 10.1297C18.2486 10.2933 17.9656 11.0408 17.9656 11.0408H16.2306L18.6837 5.48485C18.8579 5.09009 19.1533 4.98173 19.5493 4.98173H20.8258L22.163 11.0404L20.6299 11.0408Z" fill="#1A1F71"/>
</svg>
