<svg width="14" height="14" viewBox="0 0 14 14" fill="none" xmlns="http://www.w3.org/2000/svg">
<path fill-rule="evenodd" clip-rule="evenodd" d="M5.27092 5.44645C5.67425 5.44645 5.91025 5.66312 5.91025 6.01512C5.91025 6.39245 5.65492 6.60579 5.07625 6.60579H4.50758V5.44645H5.27092ZM8.84378 6.45912C8.42645 6.45912 8.15178 6.77779 8.15178 7.18979V7.19579H9.52578V7.18979C9.52578 6.77445 9.25778 6.45912 8.84378 6.45912ZM5.32525 7.20258H4.50725V8.49192H5.14658C5.82725 8.49192 6.10525 8.27525 6.10525 7.86258C6.10525 7.45325 5.82992 7.20258 5.32525 7.20258ZM10.3507 7.70259H8.15198V7.79059C8.15198 8.27859 8.44598 8.58792 8.87932 8.58792C9.21865 8.58792 9.45798 8.43058 9.52932 8.16925H10.3187C10.238 8.68525 9.79132 9.19792 8.87265 9.19792C7.93198 9.19792 7.31732 8.64592 7.31732 7.66059V7.36592C7.31732 6.42259 7.93465 5.86459 8.83732 5.86459C9.77198 5.86459 10.3507 6.46192 10.3507 7.38659V7.70259ZM7.83398 5.46859H9.83399V5.13525H7.83398V5.46859ZM5.46598 9.13525H3.65065V4.80192H5.46932C6.24932 4.80192 6.76065 5.20592 6.76065 5.86925C6.76065 6.39592 6.44398 6.71392 6.01265 6.81859V6.85592C6.53665 6.90725 6.98398 7.26325 6.98398 7.91325C6.98398 8.68859 6.35132 9.13525 5.46598 9.13525ZM7.00065 0.333252C3.31865 0.333252 0.333984 3.31859 0.333984 6.99992C0.333984 10.6819 3.31865 13.6666 7.00065 13.6666C10.6827 13.6666 13.6673 10.6819 13.6673 6.99992C13.6673 3.31859 10.6827 0.333252 7.00065 0.333252Z" fill="#555555"/>
</svg>
