<svg width="14" height="14" viewBox="0 0 14 14" fill="none" xmlns="http://www.w3.org/2000/svg">
<path fill-rule="evenodd" clip-rule="evenodd" d="M10.6641 8.32041C10.2201 9.74841 9.11342 10.7371 7.64075 10.9551C5.39342 11.2877 3.18675 9.58374 3.01209 7.31707C2.83075 4.96507 4.68609 3.00041 7.00142 3.00041C7.53675 3.00041 8.04742 3.10574 8.51409 3.29641C8.67609 3.36241 8.85942 3.30574 8.94209 3.15241L9.89875 1.38774C9.98942 1.21907 9.92409 1.00174 9.74942 0.923074C8.91142 0.544407 7.98209 0.33374 7.00342 0.33374C3.25542 0.33374 0.229421 3.42441 0.336754 7.19574C0.434754 10.6364 3.27475 13.5151 6.71275 13.6611C10.4101 13.8171 13.4768 10.9637 13.6628 7.34841C13.6701 7.21641 13.6674 6.44774 13.6648 5.99707C13.6641 5.81307 13.5148 5.66707 13.3314 5.66707H7.33209C7.14809 5.66707 6.99875 5.81574 6.99875 6.00041V7.98707C6.99875 8.17041 7.14809 8.32041 7.33209 8.32041H10.6641Z" fill="#555555"/>
</svg>
