<svg width="24" height="24" viewBox="0 0 24 24" fill="none" xmlns="http://www.w3.org/2000/svg">
<path fill-rule="evenodd" clip-rule="evenodd" d="M10.4998 17C10.2438 17 9.98776 16.902 9.79276 16.707C9.40176 16.316 9.40176 15.684 9.79276 15.293L13.0978 11.988L9.91776 8.695C9.53476 8.297 9.54576 7.664 9.94276 7.281C10.3408 6.898 10.9738 6.909 11.3568 7.305L15.2188 11.305C15.5978 11.698 15.5928 12.321 15.2068 12.707L11.2068 16.707C11.0118 16.902 10.7558 17 10.4998 17Z" fill="black"/>
<mask id="mask0" mask-type="alpha" maskUnits="userSpaceOnUse" x="9" y="7" width="7" height="10">
<path fill-rule="evenodd" clip-rule="evenodd" d="M10.4998 17C10.2438 17 9.98776 16.902 9.79276 16.707C9.40176 16.316 9.40176 15.684 9.79276 15.293L13.0978 11.988L9.91776 8.695C9.53476 8.297 9.54576 7.664 9.94276 7.281C10.3408 6.898 10.9738 6.909 11.3568 7.305L15.2188 11.305C15.5978 11.698 15.5928 12.321 15.2068 12.707L11.2068 16.707C11.0118 16.902 10.7558 17 10.4998 17Z" fill="white"/>
</mask>
<g mask="url(#mask0)">
<rect width="24" height="24" fill="black"/>
</g>
</svg>
