<svg width="152" height="24" viewBox="0 0 152 24" fill="none" xmlns="http://www.w3.org/2000/svg">
<path fill-rule="evenodd" clip-rule="evenodd" d="M140 16.05C140.159 16.05 140.318 16.088 140.463 16.163L144.232 18.133L143.515 13.976C143.458 13.65 143.567 13.318 143.805 13.087L146.841 10.151L142.638 9.539C142.313 9.492 142.032 9.289 141.886 8.995L140 5.201L138.114 8.995C137.968 9.289 137.687 9.492 137.362 9.539L133.159 10.151L136.195 13.087C136.433 13.318 136.542 13.65 136.485 13.976L135.768 18.133L139.537 16.163C139.682 16.088 139.841 16.05 140 16.05ZM145.562 20.955C145.403 20.955 145.244 20.918 145.099 20.842L140 18.178L134.901 20.842C134.563 21.018 134.155 20.987 133.85 20.763C133.542 20.539 133.389 20.16 133.453 19.785L134.425 14.157L130.305 10.172C130.03 9.907 129.932 9.509 130.049 9.146C130.165 8.783 130.479 8.519 130.856 8.464L136.557 7.636L139.104 2.51C139.442 1.83 140.558 1.83 140.896 2.51L143.443 7.636L149.144 8.464C149.521 8.519 149.835 8.783 149.951 9.146C150.068 9.509 149.97 9.907 149.695 10.172L145.575 14.157L146.547 19.785C146.611 20.16 146.458 20.539 146.15 20.763C145.977 20.891 145.77 20.955 145.562 20.955Z" fill="#D9D9D9"/>
<mask id="mask0" mask-type="alpha" maskUnits="userSpaceOnUse" x="130" y="2" width="20" height="19">
<path fill-rule="evenodd" clip-rule="evenodd" d="M140 16.05C140.159 16.05 140.318 16.088 140.463 16.163L144.232 18.133L143.515 13.976C143.458 13.65 143.567 13.318 143.805 13.087L146.841 10.151L142.638 9.539C142.313 9.492 142.032 9.289 141.886 8.995L140 5.201L138.114 8.995C137.968 9.289 137.687 9.492 137.362 9.539L133.159 10.151L136.195 13.087C136.433 13.318 136.542 13.65 136.485 13.976L135.768 18.133L139.537 16.163C139.682 16.088 139.841 16.05 140 16.05ZM145.562 20.955C145.403 20.955 145.244 20.918 145.099 20.842L140 18.178L134.901 20.842C134.563 21.018 134.155 20.987 133.85 20.763C133.542 20.539 133.389 20.16 133.453 19.785L134.425 14.157L130.305 10.172C130.03 9.907 129.932 9.509 130.049 9.146C130.165 8.783 130.479 8.519 130.856 8.464L136.557 7.636L139.104 2.51C139.442 1.83 140.558 1.83 140.896 2.51L143.443 7.636L149.144 8.464C149.521 8.519 149.835 8.783 149.951 9.146C150.068 9.509 149.97 9.907 149.695 10.172L145.575 14.157L146.547 19.785C146.611 20.16 146.458 20.539 146.15 20.763C145.977 20.891 145.77 20.955 145.562 20.955Z" fill="white"/>
</mask>
<g mask="url(#mask0)">
<rect x="128" width="24" height="24" fill="#D9D9D9"/>
</g>
<path fill-rule="evenodd" clip-rule="evenodd" d="M17.5614 21.0007C17.4034 21.0007 17.2444 20.9637 17.0984 20.8877L11.9994 18.2237L6.90138 20.8877C6.56338 21.0627 6.15538 21.0327 5.84938 20.8087C5.54138 20.5847 5.38838 20.2057 5.45338 19.8307L6.42438 14.2027L2.30438 10.2177C2.03038 9.9527 1.93138 9.5547 2.04838 9.1907C2.16538 8.8287 2.47838 8.5637 2.85638 8.5097L8.55638 7.6817L11.1044 2.5557C11.4424 1.8757 12.5574 1.8757 12.8954 2.5557L15.4434 7.6817L21.1434 8.5097C21.5214 8.5637 21.8344 8.8287 21.9514 9.1907C22.0684 9.5547 21.9694 9.9527 21.6954 10.2177L17.5754 14.2027L18.5464 19.8307C18.6114 20.2057 18.4574 20.5847 18.1504 20.8087C17.9764 20.9367 17.7694 21.0007 17.5614 21.0007Z" fill="#EBBF96"/>
<mask id="mask1" mask-type="alpha" maskUnits="userSpaceOnUse" x="2" y="2" width="20" height="20">
<path fill-rule="evenodd" clip-rule="evenodd" d="M17.5614 21.0007C17.4034 21.0007 17.2444 20.9637 17.0984 20.8877L11.9994 18.2237L6.90138 20.8877C6.56338 21.0627 6.15538 21.0327 5.84938 20.8087C5.54138 20.5847 5.38838 20.2057 5.45338 19.8307L6.42438 14.2027L2.30438 10.2177C2.03038 9.9527 1.93138 9.5547 2.04838 9.1907C2.16538 8.8287 2.47838 8.5637 2.85638 8.5097L8.55638 7.6817L11.1044 2.5557C11.4424 1.8757 12.5574 1.8757 12.8954 2.5557L15.4434 7.6817L21.1434 8.5097C21.5214 8.5637 21.8344 8.8287 21.9514 9.1907C22.0684 9.5547 21.9694 9.9527 21.6954 10.2177L17.5754 14.2027L18.5464 19.8307C18.6114 20.2057 18.4574 20.5847 18.1504 20.8087C17.9764 20.9367 17.7694 21.0007 17.5614 21.0007Z" fill="white"/>
</mask>
<g mask="url(#mask1)">
</g>
<path fill-rule="evenodd" clip-rule="evenodd" d="M49.5614 21.0007C49.4034 21.0007 49.2444 20.9637 49.0984 20.8877L43.9994 18.2237L38.9014 20.8877C38.5634 21.0627 38.1554 21.0327 37.8494 20.8087C37.5414 20.5847 37.3884 20.2057 37.4534 19.8307L38.4244 14.2027L34.3044 10.2177C34.0304 9.9527 33.9314 9.5547 34.0484 9.1907C34.1654 8.8287 34.4784 8.5637 34.8564 8.5097L40.5564 7.6817L43.1044 2.5557C43.4424 1.8757 44.5574 1.8757 44.8954 2.5557L47.4434 7.6817L53.1434 8.5097C53.5214 8.5637 53.8344 8.8287 53.9514 9.1907C54.0684 9.5547 53.9694 9.9527 53.6954 10.2177L49.5754 14.2027L50.5464 19.8307C50.6114 20.2057 50.4574 20.5847 50.1504 20.8087C49.9764 20.9367 49.7694 21.0007 49.5614 21.0007Z" fill="#EBBF96"/>
<mask id="mask2" mask-type="alpha" maskUnits="userSpaceOnUse" x="34" y="2" width="20" height="20">
<path fill-rule="evenodd" clip-rule="evenodd" d="M49.5614 21.0007C49.4034 21.0007 49.2444 20.9637 49.0984 20.8877L43.9994 18.2237L38.9014 20.8877C38.5634 21.0627 38.1554 21.0327 37.8494 20.8087C37.5414 20.5847 37.3884 20.2057 37.4534 19.8307L38.4244 14.2027L34.3044 10.2177C34.0304 9.9527 33.9314 9.5547 34.0484 9.1907C34.1654 8.8287 34.4784 8.5637 34.8564 8.5097L40.5564 7.6817L43.1044 2.5557C43.4424 1.8757 44.5574 1.8757 44.8954 2.5557L47.4434 7.6817L53.1434 8.5097C53.5214 8.5637 53.8344 8.8287 53.9514 9.1907C54.0684 9.5547 53.9694 9.9527 53.6954 10.2177L49.5754 14.2027L50.5464 19.8307C50.6114 20.2057 50.4574 20.5847 50.1504 20.8087C49.9764 20.9367 49.7694 21.0007 49.5614 21.0007Z" fill="white"/>
</mask>
<g mask="url(#mask2)">
</g>
<path fill-rule="evenodd" clip-rule="evenodd" d="M81.5614 21.0007C81.4034 21.0007 81.2444 20.9637 81.0984 20.8877L75.9994 18.2237L70.9014 20.8877C70.5634 21.0627 70.1554 21.0327 69.8494 20.8087C69.5414 20.5847 69.3884 20.2057 69.4534 19.8307L70.4244 14.2027L66.3044 10.2177C66.0304 9.9527 65.9314 9.5547 66.0484 9.1907C66.1654 8.8287 66.4784 8.5637 66.8564 8.5097L72.5564 7.6817L75.1044 2.5557C75.4424 1.8757 76.5574 1.8757 76.8954 2.5557L79.4434 7.6817L85.1434 8.5097C85.5214 8.5637 85.8344 8.8287 85.9514 9.1907C86.0684 9.5547 85.9694 9.9527 85.6954 10.2177L81.5754 14.2027L82.5464 19.8307C82.6114 20.2057 82.4574 20.5847 82.1504 20.8087C81.9764 20.9367 81.7694 21.0007 81.5614 21.0007Z" fill="#EBBF96"/>
<mask id="mask3" mask-type="alpha" maskUnits="userSpaceOnUse" x="66" y="2" width="20" height="20">
<path fill-rule="evenodd" clip-rule="evenodd" d="M81.5614 21.0007C81.4034 21.0007 81.2444 20.9637 81.0984 20.8877L75.9994 18.2237L70.9014 20.8877C70.5634 21.0627 70.1554 21.0327 69.8494 20.8087C69.5414 20.5847 69.3884 20.2057 69.4534 19.8307L70.4244 14.2027L66.3044 10.2177C66.0304 9.9527 65.9314 9.5547 66.0484 9.1907C66.1654 8.8287 66.4784 8.5637 66.8564 8.5097L72.5564 7.6817L75.1044 2.5557C75.4424 1.8757 76.5574 1.8757 76.8954 2.5557L79.4434 7.6817L85.1434 8.5097C85.5214 8.5637 85.8344 8.8287 85.9514 9.1907C86.0684 9.5547 85.9694 9.9527 85.6954 10.2177L81.5754 14.2027L82.5464 19.8307C82.6114 20.2057 82.4574 20.5847 82.1504 20.8087C81.9764 20.9367 81.7694 21.0007 81.5614 21.0007Z" fill="white"/>
</mask>
<g mask="url(#mask3)">
</g>
<path fill-rule="evenodd" clip-rule="evenodd" d="M113.561 21.0007C113.403 21.0007 113.244 20.9637 113.098 20.8877L107.999 18.2237L102.901 20.8877C102.563 21.0627 102.155 21.0327 101.849 20.8087C101.541 20.5847 101.388 20.2057 101.453 19.8307L102.424 14.2027L98.3044 10.2177C98.0304 9.9527 97.9314 9.5547 98.0484 9.1907C98.1654 8.8287 98.4784 8.5637 98.8564 8.5097L104.556 7.6817L107.104 2.5557C107.442 1.8757 108.557 1.8757 108.895 2.5557L111.443 7.6817L117.143 8.5097C117.521 8.5637 117.834 8.8287 117.951 9.1907C118.068 9.5547 117.969 9.9527 117.695 10.2177L113.575 14.2027L114.546 19.8307C114.611 20.2057 114.457 20.5847 114.15 20.8087C113.976 20.9367 113.769 21.0007 113.561 21.0007Z" fill="#EBBF96"/>
<mask id="mask4" mask-type="alpha" maskUnits="userSpaceOnUse" x="98" y="2" width="20" height="20">
<path fill-rule="evenodd" clip-rule="evenodd" d="M113.561 21.0007C113.403 21.0007 113.244 20.9637 113.098 20.8877L107.999 18.2237L102.901 20.8877C102.563 21.0627 102.155 21.0327 101.849 20.8087C101.541 20.5847 101.388 20.2057 101.453 19.8307L102.424 14.2027L98.3044 10.2177C98.0304 9.9527 97.9314 9.5547 98.0484 9.1907C98.1654 8.8287 98.4784 8.5637 98.8564 8.5097L104.556 7.6817L107.104 2.5557C107.442 1.8757 108.557 1.8757 108.895 2.5557L111.443 7.6817L117.143 8.5097C117.521 8.5637 117.834 8.8287 117.951 9.1907C118.068 9.5547 117.969 9.9527 117.695 10.2177L113.575 14.2027L114.546 19.8307C114.611 20.2057 114.457 20.5847 114.15 20.8087C113.976 20.9367 113.769 21.0007 113.561 21.0007Z" fill="white"/>
</mask>
<g mask="url(#mask4)">
</g>
</svg>
