<svg width="173" height="154" viewBox="0 0 173 154" fill="none" xmlns="http://www.w3.org/2000/svg">
    <circle cx="91.545" cy="83.322" fill="#FFF2D2" r="70.678"/>
    <path d="M136.297 34.959h3.89M135 29.123l3.242-2.593M1.404 58.47l7.781-7.782 7.781 7.781 7.781-7.78 7.782 7.78 7.78-7.78M1.404 67.547l7.781-7.78 7.781 7.78 7.781-7.78 7.782 7.78 7.78-7.78" stroke="#FFCB5E" stroke-width="1.945" stroke-linecap="round"/>
    <circle cx="46.584" cy="137.746" r="2.918" stroke="#FFCB5E" stroke-width="1.945"/>
    <path d="M130.461 23.288v3.89" stroke="#FFCB5E" stroke-width="1.945" stroke-linecap="round"/>
    <ellipse cx="97.199" cy="123.738" rx="33.262" ry="4.657" fill="#FFD989"/>
    <path d="M126.568 70.665c2.379 7.27 5.37 9.762 13.919 11.135" stroke="#000" stroke-width="1.996" stroke-linecap="round"/>
    <path d="M71.978 26.126c-2.865-31.988 34.378-32.347 32.229 0" stroke="#000" stroke-width="2.661" stroke-linecap="round"/>
    <path d="M88.525 107.781v14.847M101.516 106.853v15.775" stroke="#000" stroke-width="1.996" stroke-linecap="round"/>
    <path d="m66.767 30.125-9.792-3s19.935-.99 31.824-1c12.161-.008 31.124 1 31.124 1l-8.043 3 14.688 4.998c-13.15 3.466-48.26 2.333-63.298-.666l3.497-4.332z" fill="#FFDA80" stroke="#000" stroke-width="1.996" stroke-linejoin="round"/>
    <path d="M63.284 106.853V34.115l2.97-4.237-9.28-2.825v74.504l4.455 1.412 1.855 3.884z" fill="#FFEFC6" stroke="#000" stroke-width="1.33" stroke-linejoin="round"/>
    <path d="M126.568 106.362c-24.394 1.967-38.228 1.816-63.094 0 0 0 .394-70.957 0-71.764-.394-.808 37.904 2.807 63.094 0v71.764z" fill="#fff"/>
    <path d="M77.485 34.248c-3.464-34.335 36.652-34.493 32.944.457" stroke="#000" stroke-width="2.661" stroke-linecap="round"/>
    <path d="M147.087 82.72c-3.612-4.052-7.54-2.053-8.028 1.863-.488 3.916 4.212 4.502 6.17 4.11l1.568 2.74m0 0-16.343 16.26c-1.958 1.665-.194 4.112 1.959 3.426 2.154-.687 4.427-2.099 4.427-2.099s31.417-16.591 33.888-19.062c2.471-2.471 0-4.942-2.471-4.236-2.471.706-21.46 5.71-21.46 5.71z" stroke="#000" stroke-width="1.33" stroke-linejoin="round"/>
    <path opacity=".3" d="M69.528 90.133c-.761-18.759-.748-31.175.277-53.038a2.665 2.665 0 0 0-2.366-2.775l-3.501-.389v71.787c24.42 1.949 38.111 1.753 62.532 0v-6.594c-19.424 1.945-30.518 2.563-47.593.968-5.173-.483-9.139-4.768-9.35-9.959z" fill="#FFDA80"/>
    <path d="M59.94 97.285c-.022-6.706-.125-40.766-.01-66.244a4.142 4.142 0 0 0-2.955-3.988v74.233l4.175 1.392 1.856 3.711v-3.711l-.928-2.32-1.246-1.109a2.63 2.63 0 0 1-.892-1.964z" fill="#FFDA80"/>
    <path d="M53.648 88.287c1.819-5.282-1.887-7.815-5.602-6.289-3.715 1.526-1.923 6.05-.612 7.614l-1.66 2.786-22.465-6.55c-2.44-.926-3.745 1.889-2.076 3.482 1.668 1.594 4.05 3.245 4.05 3.245" stroke="#000" stroke-width="1.33" stroke-linecap="round"/>
    <path d="M45.512 92.34s13.712 14.866 15.306 17.112c1.594 2.246-.339 4.208-2.398 3.337-2.06-.872-30.116-18.303-30.116-18.303" stroke="#000" stroke-width="1.33" stroke-linecap="round"/>
    <path d="M60.687 70.665c-3.516 5.34-5.57 7.564-9.279 11.135" stroke="#000" stroke-width="1.996" stroke-linecap="round"/>
    <path d="M126.568 106.362c-24.394 1.967-38.228 1.816-63.094 0 0 0 .394-70.957 0-71.764-.394-.808 37.904 2.807 63.094 0v71.764z" stroke="#050505" stroke-width="1.996" stroke-linejoin="round"/>
    <path d="M63.595 106.151V34.259l2.97-4.188-9.28-2.792v73.637l4.454 1.396 1.856 3.839z" stroke="#000" stroke-width="1.996" stroke-linejoin="round"/>
    <path d="M75.745 60.968c1.834.605 6.14.806 8.693-3.231M119.731 63.228c-1.92.205-6.171-.504-7.817-4.99" stroke="#000" stroke-width="1.945" stroke-linecap="round"/>
    <ellipse cx="81.169" cy="66.723" rx="1.943" ry="3.238" transform="rotate(7.55 81.169 66.723)" fill="#000"/>
    <ellipse cx="113.544" cy="67.65" rx="1.943" ry="3.238" transform="rotate(7.55 113.544 67.65)" fill="#000"/>
    <path d="M91.839 81.532c1.86-.707 6.187-1.557 8.612.708" stroke="#000" stroke-width="1.945" stroke-linecap="round"/>
    <ellipse cx="117.744" cy="75.136" rx="5.829" ry="2.591" transform="rotate(3.964 117.744 75.136)" fill="#FFDA80"/>
    <ellipse cx="75.996" cy="73.251" rx="5.829" ry="2.591" transform="rotate(3.964 75.996 73.251)" fill="#FFDA80"/>
</svg>
